# xmcd
#
# Track frame offsets:
# 150
# 20216
# 52481
# 73490
# 92540
# 108112
# 134137
# 155669
# 184772
# 212998
# 231072
# 245944
# 269152
# 287421
# 308611
#
# Disc length: 4361 seconds
#
#
# Revision: 2
# Processed by: cddbd v1.5.1PL2 Copyright (c) Steve Scherf et al.
# Submitted via: FreeRIP 2.945 
#
DISCID=f411070f
DTITLE=Various Artist - Lover's Collection
DYEAR=2000
DGENRE=Soul
TTITLE0=Freddie Jackson - Lay your Love on Me
TTITLE1=Freddie Jackson - Rock me Tonight
TTITLE2=Freddie Jackson - You Are My Lady
TTITLE3=Freddie Jackson - Don't Want to Lose your Love
TTITLE4=Bar-Kays - Attituses
TTITLE5=Bar-Kays - Antecipation
TTITLE6=Bar-Kays - Running In And Out Me
TTITLE7=Al Green - For the Good Times
TTITLE8=Al Green - How Can You Mind A Broken Heart
TTITLE9=Al Green - Me Ainit Heavy
TTITLE10=Al Green - Let's Stay together
TTITLE11=Zapp - Easy
TTITLE12=Zapp - Spend Wholemy
TTITLE13=Zapp - Computer Love
TTITLE14=Zapp - I Want To Be your Man
EXTD=YEAR: 2000 ID3G: 0
EXTT0=
EXTT1=
EXTT2=
EXTT3=
EXTT4=
EXTT5=
EXTT6=
EXTT7=
EXTT8=
EXTT9=
EXTT10=
EXTT11=
EXTT12=
EXTT13=
EXTT14=
PLAYORDER=
